<?xml version="1.0" encoding="UTF-8" standalone="no"?>
<svg
   xmlns:dc="http://purl.org/dc/elements/1.1/"
   xmlns:cc="http://creativecommons.org/ns#"
   xmlns:rdf="http://www.w3.org/1999/02/22-rdf-syntax-ns#"
   xmlns:svg="http://www.w3.org/2000/svg"
   xmlns="http://www.w3.org/2000/svg"
   height="100%"
   style="fill-rule:evenodd;clip-rule:evenodd;stroke-linejoin:round;stroke-miterlimit:2;"
   version="1.1"
   viewBox="0 0 512 512"
   width="100%"
   xml:space="preserve"
   id="svg4964"><metadata
     id="metadata4970"><rdf:RDF><cc:Work
         rdf:about=""><dc:format>image/svg+xml</dc:format><dc:type
           rdf:resource="http://purl.org/dc/dcmitype/StillImage" /><dc:title></dc:title></cc:Work></rdf:RDF></metadata><defs
     id="defs4968" /><path
     style="fill:#f1edca;fill-opacity:1;stroke:#f1edca;stroke-width:1px;stroke-linecap:butt;stroke-linejoin:miter;stroke-opacity:1"
     d="M 149.01836,472.75464 69.351743,302.93896 V 164.57063 L 155.30783,72.325078 285.2902,51.360179 415.27257,116.35136 465.58833,237.94777 413.17608,397.281 l -136.27184,54.50874 -69.18416,48.21927 -27.3515,-0.47708 -17.494,-6.114 z"
     id="path5537" /><path
     d="M 256.12554,2.0214878 C 115.84314,2.0214878 2.1221743,115.7459 2.1221743,256.02587 c 0,107.61138 66.9492677,199.60435 161.4392557,236.61387 -2.22256,-20.09726 -4.22781,-51.00469 0.88207,-72.94547 4.61378,-19.82242 29.78411,-126.25704 29.78411,-126.25704 0,0 -7.59933,-15.21457 -7.59933,-37.71201 0,-35.31878 20.47124,-61.68683 45.96208,-61.68683 21.66884,0 32.13863,16.27129 32.13863,35.78017 0,21.79494 -13.87505,54.37621 -21.0378,84.57122 -5.98302,25.28356 12.67943,45.90073 37.61362,45.90073 45.14846,0 79.84996,-47.60238 79.84996,-116.31604 0,-60.81568 -43.70181,-103.33794 -106.09883,-103.33794 -72.27345,0 -114.69632,54.20854 -114.69632,110.22982 0,21.83265 8.40896,45.24092 18.90356,57.96605 2.07371,2.51525 2.37932,4.72093 1.76215,7.28582 -1.92982,8.02401 -6.2132,25.27561 -7.05558,28.80592 -1.1083,4.64949 -3.68208,5.63675 -8.4943,3.39731 -31.72487,-14.76808 -51.558118,-61.14706 -51.558118,-98.40167 0,-80.12609 58.214838,-153.708567 167.830068,-153.708567 88.11407,0 156.59132,62.786207 156.59132,146.698617 0,87.54189 -55.19555,157.99194 -131.80695,157.99194 -25.73788,0 -49.93587,-13.37106 -58.21683,-29.16508 0,0 -12.73799,48.49735 -15.82573,60.38206 -5.73696,22.06383 -21.21541,49.71878 -31.57009,66.58737 23.76835,7.35925 49.02403,11.32709 75.20642,11.32709 140.28736,0 254.00835,-113.71943 254.00835,-254.00734 C 510.13389,115.7459 396.4129,2.0214878 256.12554,2.0214878 Z"
     style="fill:#32312f;fill-opacity:1;fill-rule:nonzero;stroke:#f1edca;stroke-width:2.98828;stroke-miterlimit:2;stroke-dasharray:none;stroke-opacity:1"
     id="path4962" /></svg>
