<?xml version="1.0" encoding="UTF-8" standalone="no"?>
<svg
   xmlns:dc="http://purl.org/dc/elements/1.1/"
   xmlns:cc="http://creativecommons.org/ns#"
   xmlns:rdf="http://www.w3.org/1999/02/22-rdf-syntax-ns#"
   xmlns:svg="http://www.w3.org/2000/svg"
   xmlns="http://www.w3.org/2000/svg"
   height="100%"
   style="fill-rule:evenodd;clip-rule:evenodd;stroke-linejoin:round;stroke-miterlimit:2;"
   version="1.1"
   viewBox="0 0 512 512"
   width="100%"
   xml:space="preserve"
   id="svg3013"><metadata
     id="metadata3019"><rdf:RDF><cc:Work
         rdf:about=""><dc:format>image/svg+xml</dc:format><dc:type
           rdf:resource="http://purl.org/dc/dcmitype/StillImage" /><dc:title></dc:title></cc:Work></rdf:RDF></metadata><defs
     id="defs3017" /><rect
     style="fill:#f1edca;fill-opacity:1;stroke:none;stroke-width:5;stroke-miterlimit:2;stroke-dasharray:none;stroke-opacity:1"
     id="rect3620"
     width="368.49561"
     height="272.20529"
     x="74.069473"
     y="116.65942"
     ry="80.714302" /><rect
     clip-rule="evenodd"
     fill="none"
     fill-rule="evenodd"
     height="511"
     width="511"
     id="rect10429"
     x="2.6340506"
     y="0.48456308"
     style="stroke-width:3.99219" /><path
     clip-rule="evenodd"
     d="M 255.99378,1.9207206 C 116.28897,1.9207206 1.9850229,116.22466 1.9850229,255.92947 c 0,139.70482 114.3039471,254.00876 254.0087571,254.00876 139.70481,0 254.00875,-114.30394 254.00875,-254.00876 0,-139.70481 -113.03389,-254.0087494 -254.00875,-254.0087494 M 372.83781,368.96337 c -5.08018,7.62026 -13.97048,10.16036 -21.59075,5.08018 -59.69206,-36.83128 -134.62464,-44.45154 -223.5277,-24.13084 -8.89031,2.5401 -16.51057,-3.81012 -19.05066,-11.43039 -2.54009,-8.89031 3.81013,-16.51057 11.43039,-19.05065 96.52333,-21.59075 180.34622,-12.70044 246.3885,27.94096 8.8903,3.81013 10.16035,13.97048 6.35022,21.59074 m 30.48105,-69.8524 c -6.35022,8.8903 -17.78061,12.70043 -26.67092,6.35021 -68.58236,-41.91144 -172.72596,-54.61188 -252.73871,-29.21101 -10.16035,2.54009 -21.59074,-2.54008 -24.130845,-12.70043 -2.540079,-10.16035 2.540105,-21.59075 12.700445,-24.13083 92.7132,-27.94097 207.01714,-13.97049 285.75986,34.29118 7.62026,3.81013 11.43038,16.51057 5.08017,25.40088 m 2.54009,-71.12246 C 324.57614,179.72684 188.68146,174.64667 111.20879,198.7775 98.508353,202.58764 85.807912,194.96737 81.997781,183.53698 78.187649,170.83654 85.807912,158.1361 97.238306,154.32597 187.41142,127.65505 336.00654,132.73522 429.98977,188.61716 c 11.4304,6.35021 15.24054,21.59074 8.89032,33.02113 -6.35022,8.89031 -21.59075,12.70044 -33.02114,6.35022"
     fill="#10bc4c"
     fill-rule="evenodd"
     id="Spotify"
     style="fill:#32312f;fill-opacity:1;stroke:#f1edca;stroke-width:3;stroke-miterlimit:2;stroke-dasharray:none;stroke-opacity:1" /></svg>
