<?xml version="1.0" encoding="utf-8"?>
<!-- Generator: Adobe Illustrator 24.3.0, SVG Export Plug-In . SVG Version: 6.00 Build 0)  -->
<svg version="1.1" id="Layer_1" xmlns="http://www.w3.org/2000/svg" xmlns:xlink="http://www.w3.org/1999/xlink" x="0px" y="0px"
	 viewBox="0 0 50 50" style="enable-background:new 0 0 50 50;" xml:space="preserve">
<style type="text/css">
	.st0{fill:#EEEEEE;}
</style>
<path class="st0" d="M24.47,3.5c2.95,0,5.9-0.11,8.84,0.02c7.43,0.33,12.52,5.39,12.74,12.87c0.17,5.89,0.19,11.8-0.01,17.7
	c-0.25,7.21-5.3,12.34-12.46,12.61c-6.05,0.23-12.12,0.22-18.16,0c-7.17-0.26-12.23-5.4-12.48-12.6c-0.2-5.89-0.18-11.8-0.01-17.7
	C3.13,8.93,8.21,3.85,15.63,3.52C18.57,3.39,21.52,3.5,24.47,3.5z M44.13,25.38c0-2.78,0.06-5.57-0.01-8.35
	C43.92,9.95,39.79,5.65,32.84,5.49C27.12,5.35,21.38,5.32,15.66,5.5C9.45,5.7,5.14,9.87,4.91,16.01c-0.22,6.05-0.22,12.13,0,18.18
	c0.22,6.15,4.52,10.26,10.72,10.56c3.1,0.15,6.22,0.04,9.32,0.04C42.61,44.8,44.13,43.26,44.13,25.38z"/>
<path class="st0" d="M35.25,25.26c-0.08,5.79-4.88,10.59-10.67,10.65c-5.98,0.06-10.96-4.94-10.88-10.93
	c0.08-5.99,5.19-10.87,11.15-10.64C30.65,14.55,35.33,19.47,35.25,25.26z M24.31,33.94c4.73,0.1,8.81-3.78,8.97-8.53
	c0.16-4.73-3.66-8.87-8.4-9.1c-4.93-0.24-9.19,3.81-9.21,8.77C15.65,29.83,19.56,33.84,24.31,33.94z"/>
</svg>
