<?xml version="1.0" encoding="UTF-8" standalone="no"?>
<svg
   xmlns:dc="http://purl.org/dc/elements/1.1/"
   xmlns:cc="http://creativecommons.org/ns#"
   xmlns:rdf="http://www.w3.org/1999/02/22-rdf-syntax-ns#"
   xmlns:svg="http://www.w3.org/2000/svg"
   xmlns="http://www.w3.org/2000/svg"
   height="100%"
   style="fill-rule:evenodd;clip-rule:evenodd;stroke-linejoin:round;stroke-miterlimit:2;"
   version="1.1"
   viewBox="0 0 512 512"
   width="100%"
   xml:space="preserve"
   id="svg6383"><metadata
     id="metadata6389"><rdf:RDF><cc:Work
         rdf:about=""><dc:format>image/svg+xml</dc:format><dc:type
           rdf:resource="http://purl.org/dc/dcmitype/StillImage" /><dc:title></dc:title></cc:Work></rdf:RDF></metadata><defs
     id="defs6387" /><rect
     style="fill:#f1edca;fill-opacity:1;stroke:none;stroke-opacity:1"
     id="rect6952"
     width="356.63977"
     height="329.85352"
     x="82.654709"
     y="88.777283"
     ry="13.5158" /><path
     d="m 256.02283,1.750097 c 140.19067,0 254.00817,113.817483 254.00817,254.008163 0,140.19067 -113.8175,254.00817 -254.00817,254.00817 C 115.83216,509.76643 2.0146731,395.94893 2.0146731,255.75826 2.0146731,115.56758 115.83216,1.750097 256.02283,1.750097 Z m 0,95.25306 c -43.11492,0 -48.5215,0.18257 -65.45474,0.955508 -16.89749,0.770954 -28.43799,3.454895 -38.53679,7.379145 -10.43914,4.05719 -19.29272,9.48561 -28.11851,18.31141 -8.82579,8.82579 -14.25422,17.67934 -18.31141,28.11849 -3.92424,10.09782 -6.607186,21.63832 -7.37913,38.53582 -0.771949,16.93324 -0.954517,22.33981 -0.954517,65.45473 0,43.11492 0.182568,48.52151 0.954517,65.45473 0.771944,16.89749 3.45489,28.43801 7.37913,38.53582 4.05719,10.43914 9.48562,19.2927 18.31141,28.11949 8.82579,8.8258 17.67937,14.25421 28.11851,18.3114 10.0988,3.92326 21.6393,6.6072 38.53679,7.37815 16.93324,0.77295 22.33982,0.9555 65.45474,0.9555 43.11491,0 48.52151,-0.18255 65.45473,-0.9555 16.89751,-0.77095 28.438,-3.45489 38.53581,-7.37815 10.43915,-4.05719 19.29272,-9.4856 28.1195,-18.3114 8.8258,-8.82679 14.25423,-17.68035 18.3114,-28.11949 3.92326,-10.09781 6.6072,-21.63833 7.37815,-38.53582 0.77294,-16.93322 0.9555,-22.33981 0.9555,-65.45473 0,-43.11492 -0.18256,-48.52149 -0.9555,-65.45473 -0.77095,-16.8975 -3.45489,-28.438 -7.37815,-38.53582 -4.05717,-10.43915 -9.4856,-19.2927 -18.3114,-28.11849 -8.82678,-8.8258 -17.68035,-14.25422 -28.1195,-18.31141 -10.09781,-3.92425 -21.6383,-6.608191 -38.53581,-7.379145 -16.93322,-0.772938 -22.33982,-0.955508 -65.45473,-0.955508 z m 0,28.604683 c 42.38959,0 47.41023,0.16176 64.15097,0.92575 15.4786,0.70646 23.88369,3.29218 29.47784,5.46615 7.41088,2.8794 12.6994,6.32041 18.25385,11.87587 5.55642,5.55444 8.99645,10.84396 11.87587,18.25385 2.17396,5.59414 4.76068,13.99921 5.46614,29.47786 0.764,16.74072 0.92575,21.76133 0.92575,64.15094 0,42.38961 -0.16175,47.41023 -0.92575,64.15095 -0.70546,15.47862 -3.29218,23.88371 -5.46614,29.47786 -2.87942,7.41089 -6.31945,12.69939 -11.87587,18.25386 -5.55445,5.55642 -10.84297,8.99644 -18.25385,11.87587 -5.59415,2.17395 -13.99924,4.76067 -29.47784,5.46612 -16.73779,0.76402 -21.75839,0.92576 -64.15097,0.92576 -42.39256,0 -47.41219,-0.16174 -64.15095,-0.92576 -15.47863,-0.70545 -23.88371,-3.29217 -29.47785,-5.46612 -7.41088,-2.87943 -12.6994,-6.31945 -18.25485,-11.87587 -5.55544,-5.55447 -8.99545,-10.84297 -11.87486,-18.25386 -2.17398,-5.59415 -4.76069,-13.99924 -5.46715,-29.47786 -0.764,-16.74072 -0.92475,-21.76134 -0.92475,-64.15095 0,-42.38961 0.16075,-47.41022 0.92475,-64.15094 0.70646,-15.47865 3.29317,-23.88372 5.46715,-29.47786 2.87941,-7.40989 6.31942,-12.69941 11.87486,-18.25385 5.55545,-5.55546 10.84397,-8.99647 18.25485,-11.87587 5.59414,-2.17397 13.99922,-4.75969 29.47785,-5.46615 16.74074,-0.76399 21.76135,-0.92575 64.15095,-0.92575 z m 0,48.62771 c -45.02393,0 -81.52272,36.49878 -81.52272,81.52271 0,45.02394 36.49879,81.52272 81.52272,81.52272 45.02393,0 81.52272,-36.49878 81.52272,-81.52272 0,-45.02393 -36.49879,-81.52271 -81.52272,-81.52271 z m 0,134.44076 c -29.2258,0 -52.91803,-23.69222 -52.91803,-52.91805 0,-29.22582 23.69223,-52.91804 52.91803,-52.91804 29.22582,0 52.91804,23.69222 52.91804,52.91804 0,29.22583 -23.69222,52.91805 -52.91804,52.91805 z M 359.81792,171.01478 c 0,10.5215 -8.53012,19.04964 -19.05161,19.04964 -10.52051,0 -19.04961,-8.52814 -19.04961,-19.04964 0,-10.52148 8.5291,-19.05061 19.04961,-19.05061 10.52149,0 19.05161,8.52913 19.05161,19.05061 z"
     id="path6381"
     style="fill:#32312f;fill-opacity:1;stroke:#f1edca;stroke-width:2.98367;stroke-miterlimit:2;stroke-dasharray:none;stroke-opacity:1" /></svg>
