<?xml version="1.0" encoding="utf-8"?>
<!-- Generator: Adobe Illustrator 24.3.0, SVG Export Plug-In . SVG Version: 6.00 Build 0)  -->
<svg version="1.1" id="Layer_1" xmlns="http://www.w3.org/2000/svg" xmlns:xlink="http://www.w3.org/1999/xlink" x="0px" y="0px"
	 viewBox="0 0 512 512" style="enable-background:new 0 0 512 512;" xml:space="preserve">
<style type="text/css">
	.st0{fill:#FFFFFF;stroke:#000000;stroke-miterlimit:10;}
	.st1{stroke:#FFFFFF;stroke-width:10;stroke-miterlimit:10;}
</style>
<rect x="79" y="100" class="st0" width="345" height="310"/>
<path d="M305,256c0,27.06-21.94,49-49,49s-49-21.94-49-49s21.94-49,49-49S305,228.94,305,256z"/>
<path d="M370.59,169.3c-2.36-6.38-6.11-12.16-11-16.9c-4.74-4.88-10.52-8.64-16.9-11c-5.18-2.01-12.96-4.41-27.29-5.06
	c-15.5-0.71-20.15-0.86-59.4-0.86s-43.9,0.15-59.4,0.86c-14.33,0.66-22.12,3.05-27.29,5.06c-6.39,2.36-12.16,6.11-16.9,11
	c-4.88,4.74-8.64,10.52-11,16.9c-2.01,5.18-4.41,12.96-5.06,27.3c-0.71,15.5-0.86,20.15-0.86,59.4s0.15,43.9,0.86,59.4
	c0.65,14.33,3.05,22.11,5.06,27.29c2.36,6.39,6.11,12.16,11,16.9c4.74,4.88,10.52,8.64,16.9,11c5.18,2.02,12.96,4.41,27.3,5.06
	c15.5,0.71,20.14,0.86,59.4,0.86s43.91-0.15,59.4-0.86c14.33-0.65,22.12-3.05,27.3-5.06c12.82-4.95,22.95-15.08,27.9-27.9
	c2.01-5.18,4.41-12.96,5.06-27.29c0.71-15.5,0.86-20.15,0.86-59.4s-0.15-43.9-0.86-59.4C375,182.27,372.61,174.48,370.59,169.3z
	 M256,331.48c-41.69,0-75.49-33.79-75.49-75.48s33.8-75.48,75.49-75.48s75.48,33.79,75.48,75.48S297.69,331.48,256,331.48z
	 M334.47,195.17c-9.74,0-17.64-7.9-17.64-17.64s7.9-17.64,17.64-17.64s17.64,7.9,17.64,17.64
	C352.11,187.27,344.21,195.17,334.47,195.17z"/>
<path class="st1" d="M255,5C116.95,5,5,117.4,5,256s111.95,251,250,251s250-112.4,250-251S393.05,5,255,5z M397.69,315.42
	c-0.69,15.34-3.12,25.82-6.67,34.99c-7.46,19.36-22.7,34.66-41.98,42.15c-9.13,3.56-19.57,6-34.84,6.7
	c-15.31,0.7-20.2,0.87-59.19,0.87s-43.88-0.17-59.19-0.87c-15.28-0.7-25.71-3.14-34.84-6.7c-9.58-3.62-18.26-9.29-25.43-16.63
	c-7.3-7.2-12.95-15.91-16.56-25.53c-3.55-9.17-5.98-19.64-6.67-34.98c-0.71-15.37-0.87-20.28-0.87-59.43s0.16-44.05,0.87-59.42
	c0.69-15.34,3.12-25.82,6.67-34.99c3.6-9.62,9.26-18.33,16.56-25.53c7.17-7.33,15.85-13.01,25.42-16.63c9.13-3.56,19.57-6,34.85-6.7
	c15.31-0.7,20.2-0.87,59.19-0.87s43.88,0.17,59.19,0.87c15.28,0.7,25.71,3.13,34.85,6.69c9.58,3.62,18.26,9.3,25.43,16.63
	c7.3,7.2,12.95,15.91,16.56,25.53c3.55,9.17,5.98,19.64,6.68,34.99c0.7,15.37,0.86,20.28,0.86,59.42S398.39,300.05,397.69,315.42z"
	/>
</svg>
