<?xml version="1.0" encoding="utf-8"?>
<!-- Generator: Adobe Illustrator 24.3.0, SVG Export Plug-In . SVG Version: 6.00 Build 0)  -->
<svg version="1.1" id="Layer_1" xmlns="http://www.w3.org/2000/svg" xmlns:xlink="http://www.w3.org/1999/xlink" x="0px" y="0px"
	 viewBox="0 0 595.28 841.89" style="enable-background:new 0 0 595.28 841.89;" xml:space="preserve">
<path d="M112.73,405.5c11.57,0,22.94-0.92,34.11,0.22c16.78,1.71,24.84,11.15,26.11,27.98c0.69,9.16-0.87,17.85-6,25.5
	c-4.85,7.22-12.32,11.15-20.66,12.02c-11.05,1.15-22.23,1.04-33.56,1.47C112.73,449.73,112.73,427.49,112.73,405.5z M120.32,406.31
	c0,22.03,0,42.99,0,64.95c8.51-0.71,16.81-0.91,24.93-2.24c5.98-0.98,11.04-4.54,14.3-9.84c4.77-7.74,6.13-16.34,5.54-25.32
	c-0.9-13.63-6.88-22.77-18.49-25.25C138.14,406.8,129.26,407.02,120.32,406.31z"/>
<path d="M392.9,441.15c7.75,10.14,15.55,20.35,23.57,30.83c-5.5,0.76-9.74,0.8-13.25-4.42c-5.61-8.36-12.26-16-18.27-24.09
	c-1.81-2.43-3.77-2.88-6.77-2.11c0,10.18,0,20.34,0,30.72c-2.57,0-4.77,0-7.23,0c0-22.2,0-44.37,0-67.1
	c10.09,0.8,20.33-1.61,30.26,2.11c5.82,2.18,9.76,6.06,10.29,12.42c0.59,7.02-1.12,13.38-7.71,17.12
	C400.46,438.52,396.67,439.62,392.9,441.15z M378.31,439.36c8.77-0.35,18.09,1.33,23.12-7.54c3.54-6.23,3.8-13.59-0.88-19.57
	c-5.77-7.36-14.32-5.09-22.24-5.55C378.31,417.82,378.31,428.35,378.31,439.36z"/>
<path d="M360.9,439.01c-0.06,27.85-22.68,38.33-44.7,34.29c-3.01-0.55-5.97-1.6-8.81-2.79c-14.36-6.02-19.77-21.38-18.4-36.44
	c2.25-24.78,22.88-31.46,39.56-30.09c4.21,0.35,8.51,1.29,12.47,2.77C354.16,411.67,360.97,423.01,360.9,439.01z M353.32,439.23
	c-0.33-3.42-0.47-6.88-1.02-10.27c-2.23-13.76-12.32-22.7-26.09-23.26c-14.23-0.58-24.93,7.27-28.27,20.98
	c-2.09,8.57-1.92,17.19,0.26,25.74c2.77,10.83,9.45,17.95,20.7,19.28c5.51,0.65,11.39-0.02,16.84-1.26
	c5.99-1.36,10.57-5.53,13.19-11.17C351.86,452.99,353.44,446.29,353.32,439.23z"/>
<path d="M424.38,471.65c9.78-22.51,19.55-45.03,29.33-67.54c0.34-0.06,0.68-0.11,1.02-0.17c9.49,22.62,18.97,45.23,28.67,68.36
	c-2.26,0-3.91-0.13-5.53,0.03c-1.97,0.2-2.96-0.55-3.7-2.41c-2.96-7.37-6.17-14.65-9.13-22.02c-0.84-2.09-1.98-2.82-4.23-2.76
	c-6.54,0.15-13.09,0.13-19.63,0.01c-2.08-0.04-3.18,0.6-4,2.56c-3.11,7.44-6.37,14.82-9.66,22.19c-0.45,1.02-1.42,1.8-2.15,2.7
	C425.04,472.27,424.71,471.96,424.38,471.65z M439.27,443.13c8.11,0,15.7,0,23.63,0c-3.87-9.32-7.58-18.27-11.64-28.05
	C447.05,424.92,443.25,433.81,439.27,443.13z"/>
<path d="M280.45,467.4c-0.74,0.83-1.33,1.9-2.24,2.45c-13.31,8.05-35.23,4.95-45.38-6.75c-6.1-7.04-7.92-15.72-7.92-24.89
	c0.02-27.51,21.3-35.8,39.86-34.18c4.43,0.39,8.77,1.89,13.11,3.07c0.97,0.26,1.72,1.32,2.87,2.26c-6.26-1.31-11.78-3.17-17.4-3.51
	c-17.4-1.06-28.84,9.37-30.37,26.81c-0.74,8.4-0.21,16.55,3.02,24.49c3.9,9.59,11.4,13.93,21.16,14.95
	c8.03,0.84,15.62-0.73,22.44-5.37C279.89,466.95,280.17,467.18,280.45,467.4z"/>
<path d="M183.13,405.32c11.16,0,22.02,0,32.88,0c0.02,0.35,0.04,0.69,0.06,1.04c-8.42,0-16.85,0-25.5,0c0,10.33,0,19.89,0,30.11
	c7.53,0,15.09,0,22.66,0c0,0.41-0.01,0.81-0.01,1.22c-7.43,0-14.85,0-22.59,0c0,11.17,0,21.78,0,33.09c8.44,0,16.93,0,25.41,0
	c-0.01,0.37-0.01,0.73-0.02,1.1c-10.88,0-21.76,0-32.88,0C183.13,449.84,183.13,427.68,183.13,405.32z"/>
<path d="M408.84,510.32c0-7.63,0-14.24,0-20.86c0.29,0.01,0.59,0.02,0.88,0.03c0,17.03,0,34.07,0,51.1
	c-0.21,0.02-0.43,0.05-0.64,0.07c-0.16-0.6-0.38-1.19-0.45-1.8c-0.08-0.7-0.02-1.41-0.02-1.79c-2.92,1.43-5.73,3.55-8.84,4.18
	c-8.67,1.78-15.71-3.31-16.61-12.26c-0.51-4.98-0.25-10.26,0.83-15.14c2.01-9.07,14.82-12.55,21.99-6.34
	C406.68,508.14,407.32,508.84,408.84,510.32z M408.6,523.04c0-1.9,0.01-3.81,0-5.71c-0.04-6-2.21-9.2-7.32-10.8
	c-5.65-1.76-11.34-0.05-14.34,4.32c-3.61,5.25-3.61,19.04-0.01,24.35c2.9,4.27,8.5,6.05,14,4.45c5.33-1.54,7.66-4.86,7.67-10.9
	C408.61,526.85,408.6,524.94,408.6,523.04z"/>
<path d="M161.57,383.54c0-6.49,0.06-12.99-0.03-19.48c-0.04-2.72-0.09-5.5-0.67-8.13c-1.12-5.08-5.48-7.69-11.17-7.07
	c-6.04,0.66-9.45,3.99-9.51,9.51c-0.07,7.26-0.02,14.51-0.02,21.77c0,1.12,0,2.23,0,3.35c-0.35,0-0.7,0-1.05,0
	c0-17.24,0-34.49,0-51.73c0.24-0.01,0.49-0.02,0.73-0.04c0,6.76,0,13.52,0,20.29c3.09-1.83,5.63-4.07,8.59-4.96
	c6.94-2.11,14.12,3.61,14.43,10.79c0.36,8.31,0.12,16.65,0.12,24.97c0,0.26-0.31,0.52-0.48,0.78
	C162.19,383.57,161.88,383.55,161.57,383.54z"/>
<path d="M182.52,365.41c-0.81,9.4,2.28,15.38,8.45,17.2c6.91,2.03,12.02-0.53,16.92-8.09c-0.18,0.94-0.18,1.98-0.57,2.82
	c-2.42,5.13-7.69,7.7-14.32,7.08c-5.38-0.5-9.82-3.78-10.85-9.2c-0.94-4.93-1.32-10.08-1.11-15.1c0.26-6.09,4.2-10.17,9.44-12.76
	c4.08-2.02,9.77-0.17,13.76,3.92c3.26,3.35,4.92,8.7,4.2,14.13C199.87,365.41,191.26,365.41,182.52,365.41z M207.24,363.89
	c-0.22-5.6-1.46-10.46-6.35-13.4c-4.21-2.53-8.74-2.45-12.86,0.18c-4.68,2.99-5.81,7.76-5.75,13.22
	C190.62,363.89,198.66,363.89,207.24,363.89z"/>
<path d="M368.03,523.22c-9.6,0-18.23,0-26.79,0c-0.96,7.23,1.49,13.53,6.52,15.6c7.98,3.29,14.27,0.93,18.59-7.66
	c-0.29,5.5-4.93,9.68-10.34,10.29c-9.32,1.05-15.83-4.22-16.49-13.92c-0.28-4.21,0.12-8.54,0.85-12.71
	c1.08-6.13,5.64-9.8,11.95-10.35c5.91-0.52,11.51,2.77,13.49,8.42C366.89,515.95,367.21,519.28,368.03,523.22z M365.87,521.64
	c-0.24-5.54-0.94-10.68-5.93-13.89c-4.15-2.68-8.65-2.67-12.86-0.25c-5.35,3.08-5.83,8.48-6.22,14.14
	C349.28,521.64,357.42,521.64,365.87,521.64z"/>
<path d="M111.69,349.72c-2.38-0.1-4.32-0.19-6.25-0.28c-0.06-0.45-0.12-0.91-0.18-1.36c1.96-0.32,3.91-0.65,6.22-1.03
	c0.15-2.96,0.31-5.99,0.47-9.01c0.37,0.01,0.75,0.02,1.12,0.03c0,2.96,0,5.92,0,8.95c3.15,0.39,5.8,0.72,8.46,1.05
	c-0.05,0.46-0.1,0.92-0.15,1.38c-2.53,0-5.06,0-7.86,0c0,11.03,0,21.64,0,32.63c2.38,0.14,4.83,0.29,7.28,0.43
	c-0.01,0.39-0.02,0.77-0.03,1.16c-2.36,0-4.8,0.33-7.05-0.16c-0.88-0.19-1.91-2.22-1.94-3.43c-0.17-8.66-0.09-17.33-0.09-26
	C111.69,352.78,111.69,351.48,111.69,349.72z"/>
<path d="M455.18,506.79c-2.4-0.13-4.3-0.24-6.2-0.34c-0.01-0.3-0.02-0.6-0.02-0.91c1.9-0.19,3.8-0.38,6.22-0.62
	c0-3.05,0-6.04,0-9.04c0.41-0.02,0.82-0.04,1.23-0.06c0,2.97,0,5.95,0,9.14c3.24,0.2,5.83,0.37,8.41,0.53
	c-0.01,0.31-0.02,0.62-0.03,0.93c-2.5,0.12-5,0.24-7.78,0.37c0,10.72,0,21.34,0,32.32c2.39,0.15,4.84,0.31,7.29,0.46
	c-0.02,0.36-0.03,0.71-0.05,1.07c-2.49,0-5.03,0.27-7.44-0.16c-0.72-0.13-1.54-2.2-1.56-3.4c-0.13-8.68-0.07-17.35-0.07-26.03
	C455.18,509.76,455.18,508.46,455.18,506.79z"/>
<path d="M431.52,540.49c0-11.61,0-23.21,0-34.82c0.25,0,0.51-0.01,0.76-0.01c0,11.6,0,23.19,0,34.79
	C432.03,540.46,431.78,540.47,431.52,540.49z"/>
<path d="M483,536.09c1.02,1.49,1.99,2.29,1.91,2.96c-0.09,0.71-1.17,1.3-1.82,1.95c-0.57-0.58-1.57-1.13-1.61-1.74
	C481.43,538.49,482.18,537.68,483,536.09z"/>
</svg>
