<?xml version="1.0" encoding="utf-8"?>
<!-- Generator: Adobe Illustrator 24.3.0, SVG Export Plug-In . SVG Version: 6.00 Build 0)  -->
<svg version="1.1" id="Layer_1" xmlns="http://www.w3.org/2000/svg" xmlns:xlink="http://www.w3.org/1999/xlink" x="0px" y="0px"
	 viewBox="0 0 500 500" style="enable-background:new 0 0 500 500;" xml:space="preserve">
<style type="text/css">
	.st0{fill:#EEEEEE;}
</style>
<path class="st0" d="M73.52,220.49c11.57,0,22.94-0.92,34.11,0.22c16.78,1.71,24.84,11.15,26.11,27.98c0.69,9.16-0.87,17.85-6,25.51
	c-4.85,7.22-12.32,11.15-20.66,12.02c-11.05,1.15-22.23,1.04-33.56,1.47C73.52,264.71,73.52,242.47,73.52,220.49z M81.11,221.29
	c0,22.03,0,42.99,0,64.95c8.51-0.71,16.81-0.91,24.93-2.24c5.98-0.98,11.04-4.54,14.3-9.84c4.77-7.74,6.13-16.34,5.54-25.32
	c-0.9-13.63-6.88-22.77-18.49-25.25C98.94,221.78,90.05,222,81.11,221.29z"/>
<path class="st0" d="M353.7,256.13c7.75,10.14,15.56,20.35,23.57,30.83c-5.5,0.76-9.74,0.8-13.25-4.42
	c-5.61-8.36-12.26-16-18.27-24.09c-1.81-2.43-3.77-2.88-6.77-2.11c0,10.18,0,20.34,0,30.72c-2.57,0-4.77,0-7.23,0
	c0-22.2,0-44.37,0-67.1c10.09,0.8,20.33-1.61,30.26,2.11c5.82,2.18,9.76,6.06,10.29,12.42c0.59,7.02-1.12,13.38-7.71,17.12
	C361.25,253.5,357.47,254.6,353.7,256.13z M339.1,254.34c8.77-0.35,18.09,1.33,23.12-7.54c3.54-6.23,3.8-13.59-0.88-19.57
	c-5.77-7.36-14.32-5.09-22.24-5.55C339.1,232.8,339.1,243.33,339.1,254.34z"/>
<path class="st0" d="M321.69,254c-0.06,27.85-22.68,38.33-44.7,34.29c-3.01-0.55-5.97-1.6-8.81-2.79
	c-14.36-6.02-19.77-21.38-18.4-36.44c2.25-24.78,22.88-31.46,39.56-30.09c4.21,0.35,8.51,1.29,12.47,2.77
	C314.95,226.65,321.77,237.99,321.69,254z M314.11,254.22c-0.33-3.42-0.47-6.88-1.02-10.27c-2.23-13.76-12.32-22.7-26.09-23.26
	c-14.23-0.58-24.93,7.27-28.27,20.98c-2.09,8.57-1.92,17.19,0.26,25.74c2.77,10.83,9.45,17.95,20.7,19.28
	c5.51,0.65,11.39-0.02,16.84-1.26c5.99-1.36,10.57-5.53,13.19-11.17C312.65,267.97,314.24,261.27,314.11,254.22z"/>
<path class="st0" d="M385.17,286.63c9.78-22.51,19.55-45.03,29.33-67.54c0.34-0.06,0.68-0.11,1.02-0.17
	c9.49,22.62,18.97,45.23,28.67,68.36c-2.26,0-3.91-0.13-5.53,0.03c-1.97,0.2-2.96-0.55-3.7-2.41c-2.96-7.37-6.17-14.65-9.13-22.02
	c-0.84-2.09-1.98-2.82-4.23-2.76c-6.54,0.15-13.09,0.13-19.63,0.01c-2.08-0.04-3.18,0.6-4,2.56c-3.11,7.44-6.37,14.82-9.66,22.19
	c-0.45,1.02-1.42,1.8-2.15,2.7C385.83,287.26,385.5,286.95,385.17,286.63z M400.06,258.11c8.11,0,15.7,0,23.63,0
	c-3.87-9.32-7.58-18.27-11.64-28.05C407.85,239.9,404.05,248.79,400.06,258.11z"/>
<path class="st0" d="M241.24,282.39c-0.74,0.83-1.33,1.9-2.24,2.45c-13.31,8.05-35.23,4.95-45.38-6.75
	c-6.1-7.04-7.92-15.72-7.92-24.89c0.02-27.51,21.3-35.8,39.86-34.18c4.43,0.39,8.77,1.89,13.11,3.07c0.97,0.26,1.72,1.32,2.87,2.26
	c-6.26-1.31-11.78-3.17-17.4-3.51c-17.4-1.06-28.84,9.37-30.37,26.81c-0.74,8.4-0.21,16.55,3.02,24.49
	c3.9,9.59,11.4,13.93,21.16,14.95c8.03,0.84,15.62-0.73,22.44-5.37C240.68,281.94,240.96,282.16,241.24,282.39z"/>
<path class="st0" d="M143.92,220.3c11.16,0,22.02,0,32.88,0c0.02,0.35,0.04,0.69,0.06,1.04c-8.42,0-16.85,0-25.5,0
	c0,10.33,0,19.89,0,30.11c7.53,0,15.09,0,22.66,0c0,0.41-0.01,0.81-0.01,1.22c-7.43,0-14.85,0-22.59,0c0,11.17,0,21.78,0,33.09
	c8.44,0,16.93,0,25.41,0c-0.01,0.37-0.01,0.73-0.02,1.1c-10.88,0-21.76,0-32.88,0C143.92,264.82,143.92,242.66,143.92,220.3z"/>
<path class="st0" d="M369.63,325.31c0-7.63,0-14.24,0-20.86c0.29,0.01,0.59,0.02,0.88,0.03c0,17.03,0,34.07,0,51.1
	c-0.21,0.02-0.43,0.05-0.64,0.07c-0.16-0.6-0.38-1.19-0.45-1.8c-0.08-0.7-0.02-1.41-0.02-1.79c-2.92,1.43-5.73,3.55-8.84,4.18
	c-8.67,1.78-15.71-3.31-16.61-12.26c-0.51-4.98-0.25-10.26,0.83-15.14c2.01-9.07,14.82-12.55,21.99-6.34
	C367.47,323.12,368.11,323.82,369.63,325.31z M369.4,338.02c0-1.9,0.01-3.81,0-5.71c-0.04-6-2.21-9.2-7.32-10.8
	c-5.65-1.76-11.34-0.05-14.34,4.32c-3.61,5.25-3.61,19.04-0.01,24.35c2.9,4.27,8.5,6.05,14,4.45c5.33-1.54,7.66-4.86,7.67-10.9
	C369.4,341.83,369.4,339.93,369.4,338.02z"/>
<path class="st0" d="M122.36,198.52c0-6.49,0.06-12.99-0.03-19.48c-0.04-2.72-0.09-5.5-0.67-8.13c-1.12-5.08-5.48-7.69-11.17-7.07
	c-6.04,0.66-9.45,3.99-9.51,9.51c-0.07,7.26-0.02,14.51-0.02,21.77c0,1.12,0,2.23,0,3.35c-0.35,0-0.7,0-1.05,0
	c0-17.24,0-34.49,0-51.73c0.24-0.01,0.49-0.02,0.73-0.04c0,6.76,0,13.52,0,20.29c3.09-1.83,5.63-4.07,8.59-4.96
	c6.94-2.11,14.12,3.61,14.43,10.79c0.36,8.31,0.12,16.65,0.12,24.97c0,0.26-0.31,0.52-0.48,0.78
	C122.99,198.55,122.67,198.54,122.36,198.52z"/>
<path class="st0" d="M143.31,180.39c-0.81,9.4,2.28,15.38,8.45,17.2c6.91,2.03,12.02-0.53,16.92-8.09
	c-0.18,0.94-0.18,1.98-0.57,2.82c-2.42,5.13-7.69,7.7-14.32,7.08c-5.38-0.5-9.82-3.78-10.85-9.2c-0.94-4.93-1.32-10.08-1.11-15.1
	c0.26-6.09,4.2-10.17,9.44-12.76c4.08-2.02,9.77-0.17,13.76,3.92c3.26,3.35,4.92,8.7,4.2,14.13
	C160.67,180.39,152.05,180.39,143.31,180.39z M168.04,178.87c-0.22-5.6-1.46-10.46-6.35-13.4c-4.21-2.53-8.74-2.45-12.86,0.18
	c-4.68,2.99-5.81,7.76-5.75,13.22C151.41,178.87,159.46,178.87,168.04,178.87z"/>
<path class="st0" d="M328.82,338.21c-9.6,0-18.23,0-26.79,0c-0.96,7.23,1.49,13.53,6.52,15.6c7.98,3.29,14.27,0.93,18.59-7.66
	c-0.29,5.5-4.93,9.68-10.34,10.29c-9.32,1.05-15.83-4.22-16.49-13.92c-0.28-4.21,0.12-8.54,0.85-12.71
	c1.08-6.13,5.64-9.8,11.95-10.35c5.91-0.52,11.51,2.77,13.49,8.42C327.68,330.93,328.01,334.26,328.82,338.21z M326.66,336.63
	c-0.24-5.54-0.94-10.68-5.93-13.89c-4.15-2.68-8.65-2.67-12.86-0.25c-5.35,3.08-5.83,8.48-6.22,14.14
	C310.07,336.63,318.21,336.63,326.66,336.63z"/>
<path class="st0" d="M72.48,164.7c-2.38-0.1-4.32-0.19-6.25-0.28c-0.06-0.45-0.12-0.91-0.18-1.36c1.96-0.32,3.91-0.65,6.22-1.03
	c0.15-2.96,0.31-5.99,0.47-9.01c0.37,0.01,0.75,0.02,1.12,0.03c0,2.96,0,5.92,0,8.95c3.15,0.39,5.8,0.72,8.46,1.05
	c-0.05,0.46-0.1,0.92-0.15,1.38c-2.53,0-5.06,0-7.86,0c0,11.03,0,21.64,0,32.63c2.38,0.14,4.83,0.29,7.28,0.43
	c-0.01,0.39-0.02,0.77-0.03,1.16c-2.36,0-4.8,0.33-7.05-0.16c-0.88-0.19-1.91-2.22-1.94-3.43c-0.17-8.66-0.09-17.33-0.09-26
	C72.48,167.76,72.48,166.46,72.48,164.7z"/>
<path class="st0" d="M415.97,321.78c-2.4-0.13-4.3-0.24-6.2-0.34c-0.01-0.3-0.02-0.6-0.02-0.91c1.9-0.19,3.8-0.38,6.22-0.62
	c0-3.05,0-6.04,0-9.04c0.41-0.02,0.82-0.04,1.23-0.06c0,2.97,0,5.95,0,9.14c3.24,0.2,5.83,0.37,8.41,0.53
	c-0.01,0.31-0.02,0.62-0.03,0.93c-2.5,0.12-5,0.24-7.78,0.37c0,10.72,0,21.34,0,32.32c2.39,0.15,4.84,0.31,7.29,0.46
	c-0.02,0.36-0.03,0.71-0.05,1.07c-2.49,0-5.03,0.27-7.44-0.16c-0.72-0.13-1.54-2.2-1.56-3.4c-0.13-8.68-0.07-17.35-0.07-26.03
	C415.97,324.74,415.97,323.45,415.97,321.78z"/>
<path class="st0" d="M392.32,355.47c0-11.61,0-23.21,0-34.82c0.25,0,0.51-0.01,0.76-0.01c0,11.6,0,23.19,0,34.79
	C392.82,355.44,392.57,355.46,392.32,355.47z"/>
<path class="st0" d="M443.79,351.07c1.02,1.49,1.99,2.29,1.91,2.96c-0.09,0.71-1.17,1.3-1.82,1.95c-0.57-0.58-1.57-1.13-1.61-1.74
	C442.22,353.48,442.97,352.67,443.79,351.07z"/>
</svg>
