<?xml version="1.0" encoding="utf-8"?>
<!-- Generator: Adobe Illustrator 24.3.0, SVG Export Plug-In . SVG Version: 6.00 Build 0)  -->
<svg version="1.1" id="Layer_1" xmlns="http://www.w3.org/2000/svg" xmlns:xlink="http://www.w3.org/1999/xlink" x="0px" y="0px"
	 viewBox="0 0 50 50" style="enable-background:new 0 0 50 50;" xml:space="preserve">
<style type="text/css">
	.st0{fill:#D8C5FB;}
</style>
<path d="M9.9,27.4c6.27,1.94,10.8,0.37,12.72-4.31c1.26-3.06,0.72-6.6-1.42-9.12c-2.21-2.59-5.08-3.64-8.39-2.91
	c-3.01,0.67-5.51,2.74-6.48,5.67c-2.45,7.41,1.89,19.13,8.46,23.71c0.56,0.39,1.14,0.95,1.76,1.02c0.18,0.02,0.36,0.02,0.54,0.01
	c1.1-0.08,1.8-1.34,1.2-2.27c-0.09-0.14-0.2-0.26-0.33-0.33c-3.99-2.37-6.39-5.9-7.84-10.2C10.02,28.37,10.01,28.03,9.9,27.4z"/>
<path class="st0" d="M10.43,27.56c6.27,1.94,10.8,0.37,12.72-4.31c1.26-3.06,0.72-6.6-1.42-9.12c-2.21-2.59-5.08-3.64-8.39-2.91
	c-3.01,0.67-5.51,2.74-6.48,5.67c-2.45,7.41,1.89,19.13,8.46,23.71c0.56,0.39,1.14,0.95,1.76,1.02c0.18,0.02,0.36,0.02,0.54,0.01
	c1.1-0.08,1.8-1.34,1.2-2.27c-0.09-0.14-0.2-0.26-0.33-0.33c-3.99-2.37-6.39-5.9-7.84-10.2C10.54,28.53,10.53,28.19,10.43,27.56z"/>
<path d="M31.75,27.4c6.27,1.94,10.8,0.37,12.72-4.31c1.26-3.06,0.72-6.6-1.42-9.12c-2.21-2.59-5.08-3.64-8.39-2.91
	c-3.01,0.67-5.51,2.74-6.48,5.67c-2.45,7.41,1.89,19.13,8.46,23.71c0.56,0.39,1.14,0.95,1.76,1.02c0.18,0.02,0.36,0.02,0.54,0.01
	c1.1-0.08,1.8-1.34,1.2-2.27c-0.09-0.14-0.2-0.26-0.33-0.33c-3.99-2.37-6.39-5.9-7.84-10.2C31.87,28.37,31.86,28.03,31.75,27.4z"/>
<path class="st0" d="M32.28,27.56c6.27,1.94,10.8,0.37,12.72-4.31c1.26-3.06,0.72-6.6-1.42-9.12c-2.21-2.59-5.08-3.64-8.39-2.91
	c-3.01,0.67-5.51,2.74-6.48,5.67c-2.45,7.41,1.89,19.13,8.46,23.71c0.56,0.39,1.14,0.95,1.76,1.02c0.18,0.02,0.36,0.02,0.54,0.01
	c1.1-0.08,1.8-1.34,1.2-2.27c-0.09-0.14-0.2-0.26-0.33-0.33c-3.99-2.37-6.39-5.9-7.84-10.2C32.39,28.53,32.38,28.19,32.28,27.56z"/>
</svg>
