<?xml version="1.0" encoding="utf-8"?>
<!-- Generator: Adobe Illustrator 24.3.0, SVG Export Plug-In . SVG Version: 6.00 Build 0)  -->
<svg version="1.1" id="Bold" xmlns="http://www.w3.org/2000/svg" xmlns:xlink="http://www.w3.org/1999/xlink" x="0px" y="0px"
	 viewBox="0 0 512 512" style="enable-background:new 0 0 512 512;" xml:space="preserve">
<style type="text/css">
	.st0{fill:#FFFFFF;stroke:#000000;stroke-miterlimit:10;}
	.st1{stroke:#FFFFFF;stroke-width:10;stroke-miterlimit:10;}
</style>
<rect x="60" y="126" class="st0" width="390" height="271"/>
<path class="st1" d="M255,505c138,0,250-112,250-250S393,5,255,5S5,117,5,255S117,505,255,505z M356.5,372.83v0.02
	c-16.81,0-69.92-58.92-219.17-28.33c-3.94,1.02-9.08,2.62-12,2.62c-19.06,0-22.71-28.52-2.21-32.88
	c82.56-18.23,166.94-16.63,238.9,26.42C379.19,351.65,371.9,372.83,356.5,372.83L356.5,372.83z M383.65,306.73
	c-2.35-0.62-1.67,1.44-12.44-4.23c-63.02-37.29-156.94-52.33-240.52-29.65c-4.83,1.31-7.46,2.62-12,2.62
	c-22.31,0-28.23-33.56-3.92-40.42c98.25-27.6,203.65-11.5,277.02,32.15c8.17,4.83,11.4,11.1,11.4,19.85
	C403.08,297.94,394.62,306.73,383.65,306.73z M99.75,150.79c94.23-27.58,236.83-18.88,325.5,32.88
	c22.73,13.1,13.79,46.25-10.37,46.25l-0.02-0.02c-5.25,0-8.48-1.31-13.02-3.94c-71.73-42.83-200.08-53.1-283.12-29.92
	c-3.65,1-8.19,2.6-13.02,2.6c-13.31,0-23.48-10.4-23.48-23.79C82.21,161.17,90.69,153.42,99.75,150.79L99.75,150.79z"/>
</svg>
