<?xml version="1.0" encoding="utf-8"?>
<!-- Generator: Adobe Illustrator 24.3.0, SVG Export Plug-In . SVG Version: 6.00 Build 0)  -->
<svg version="1.1" id="Layer_1" xmlns="http://www.w3.org/2000/svg" xmlns:xlink="http://www.w3.org/1999/xlink" x="0px" y="0px"
	 viewBox="0 0 512 512" style="enable-background:new 0 0 512 512;" xml:space="preserve">
<style type="text/css">
	.st0{fill:#FFFFFF;stroke:#000000;stroke-miterlimit:10;}
	.st1{stroke:#FFFFFF;stroke-width:10;stroke-miterlimit:10;}
</style>
<rect x="88" y="110" class="st0" width="334" height="286"/>
<path class="st1" d="M255.5,7C118.28,7,7,118.73,7,256.5S118.28,506,255.5,506S504,394.27,504,256.5S392.72,7,255.5,7z
	 M368.96,201.53c0.11,2.46,0.16,4.92,0.16,7.4c0,75.67-57.37,162.93-162.29,162.94l0,0l0,0c-32.21,0-62.19-9.48-87.43-25.72
	c4.46,0.53,9.01,0.79,13.61,0.79c26.72,0,51.32-9.15,70.84-24.51c-24.97-0.46-46.02-17.02-53.29-39.78
	c3.48,0.67,7.05,1.04,10.72,1.04c5.21,0,10.25-0.7,15.04-2.02c-26.1-5.25-45.76-28.4-45.76-56.14c0-0.26,0-0.49,0.01-0.73
	c7.69,4.29,16.48,6.87,25.83,7.16c-15.32-10.26-25.38-27.8-25.38-47.67c0-10.49,2.82-20.32,7.72-28.79
	c28.13,34.65,70.16,57.44,117.57,59.84c-0.98-4.2-1.48-8.57-1.48-13.06c0-31.61,25.55-57.26,57.04-57.26
	c16.41,0,31.23,6.96,41.63,18.1c12.99-2.57,25.2-7.34,36.22-13.9c-4.27,13.37-13.31,24.58-25.08,31.67
	c11.54-1.39,22.53-4.46,32.75-9.02C389.78,183.36,380.1,193.45,368.96,201.53z"/>
</svg>
