<?xml version="1.0" encoding="UTF-8" standalone="no"?>
<svg
   xmlns:dc="http://purl.org/dc/elements/1.1/"
   xmlns:cc="http://creativecommons.org/ns#"
   xmlns:rdf="http://www.w3.org/1999/02/22-rdf-syntax-ns#"
   xmlns:svg="http://www.w3.org/2000/svg"
   xmlns="http://www.w3.org/2000/svg"
   height="100%"
   style="fill-rule:evenodd;clip-rule:evenodd;stroke-linejoin:round;stroke-miterlimit:2;"
   version="1.1"
   viewBox="0 0 512 512"
   width="100%"
   xml:space="preserve"
   id="svg3013"><metadata
     id="metadata3019"><rdf:RDF><cc:Work
         rdf:about=""><dc:format>image/svg+xml</dc:format><dc:type
           rdf:resource="http://purl.org/dc/dcmitype/StillImage" /><dc:title></dc:title></cc:Work></rdf:RDF></metadata><defs
     id="defs3017" /><rect
     style="fill:#f1edca;fill-opacity:1;stroke:none;stroke-width:5;stroke-miterlimit:2;stroke-dasharray:none;stroke-opacity:1"
     id="rect3620"
     width="368.49561"
     height="272.20529"
     x="74.069473"
     y="116.65942"
     ry="80.714302" /><path
     d="m 256.19448,1.9726461 c 140.18939,0 254.00582,113.8164339 254.00582,254.0058039 0,140.18939 -113.81643,254.00582 -254.00582,254.00582 C 116.00511,509.98427 2.1886723,396.16784 2.1886723,255.97845 2.1886723,115.78908 116.00511,1.9726461 256.19448,1.9726461 Z M 408.31519,179.55643 c -3.65132,-13.66172 -14.40889,-24.41829 -28.06961,-28.06962 -24.76359,-6.63589 -124.0511,-6.63589 -124.0511,-6.63589 0,0 -99.28749,0 -124.05108,6.63589 -13.65777,3.65133 -24.41829,14.4079 -28.06962,28.06962 -6.632929,24.76062 -6.632929,76.42401 -6.632929,76.42401 0,0 0,51.6614 6.632929,76.42005 3.65133,13.66171 14.41185,24.42226 28.06962,28.07258 24.76359,6.63293 124.05108,6.63293 124.05108,6.63293 0,0 99.28751,0 124.0511,-6.63293 13.66072,-3.65032 24.41829,-14.41087 28.06961,-28.07258 6.63294,-24.75865 6.63294,-76.42005 6.63294,-76.42005 0,0 0,-51.66339 -6.63294,-76.42401 z m -183.87242,124.0511 v -95.25418 l 82.48939,47.62709 z"
     id="path3011"
     style="fill:#32312f;fill-opacity:1;stroke:#f1edca;stroke-width:3;stroke-miterlimit:2;stroke-dasharray:none;stroke-opacity:1" /></svg>
