<?xml version="1.0" encoding="utf-8"?>
<!-- Generator: Adobe Illustrator 24.3.0, SVG Export Plug-In . SVG Version: 6.00 Build 0)  -->
<svg version="1.1" id="Layer_1" xmlns="http://www.w3.org/2000/svg" xmlns:xlink="http://www.w3.org/1999/xlink" x="0px" y="0px"
	 viewBox="0 0 512 512" style="enable-background:new 0 0 512 512;" xml:space="preserve">
<style type="text/css">
	.st0{fill:#FFFFFF;}
	.st1{stroke:#FFFFFF;stroke-width:10;stroke-miterlimit:10;}
</style>
<rect x="72.88" y="114.87" class="st0" width="380.86" height="302.13"/>
<path d="M224.11,303.96L307.39,256l-83.27-47.96V303.96z"/>
<path class="st1" d="M255.5,5C117.17,5,5,116.73,5,254.5S117.17,504,255.5,504S506,392.27,506,254.5S393.83,5,255.5,5z
	 M412.02,254.76c0,0,0,50.6-6.44,75c-3.61,13.36-14.18,23.89-27.59,27.48c-24.5,6.42-122.49,6.42-122.49,6.42s-97.73,0-122.49-6.68
	c-13.41-3.59-23.98-14.13-27.59-27.48c-6.45-24.14-6.45-75-6.45-75s0-50.6,6.45-75c3.61-13.36,14.44-24.14,27.59-27.74
	c24.5-6.42,122.49-6.42,122.49-6.42s97.99,0,122.49,6.68c13.41,3.59,23.98,14.13,27.59,27.48
	C412.28,203.9,412.02,254.76,412.02,254.76z"/>
</svg>
